<svg width="346" height="393" viewBox="0 0 346 393" fill="none" xmlns="http://www.w3.org/2000/svg">
<g filter="url(#filter0_d_27_10676)">
<rect x="72.5508" y="69.5391" width="200.898" height="248.31" rx="11.9677" fill="white"/>
<rect x="73.0508" y="70.0391" width="199.898" height="247.31" rx="11.4677" stroke="black" stroke-opacity="0.11"/>
<path d="M109.616 149.631H161.582V97.665H109.616V149.631ZM122.608 110.656H148.59V136.639H122.608V110.656ZM109.616 214.588H161.582V162.622H109.616V214.588ZM122.608 175.614H148.59V201.596H122.608V175.614ZM174.573 97.665V149.631H226.539V97.665H174.573ZM213.548 136.639H187.565V110.656H213.548V136.639ZM213.548 201.596H226.539V214.588H213.548V201.596ZM174.573 162.622H187.565V175.614H174.573V162.622ZM187.565 175.614H200.556V188.605H187.565V175.614ZM174.573 188.605H187.565V201.596H174.573V188.605ZM187.565 201.596H200.556V214.588H187.565V201.596ZM200.556 188.605H213.548V201.596H200.556V188.605ZM200.556 162.622H213.548V175.614H200.556V162.622ZM213.548 175.614H226.539V188.605H213.548V175.614Z" fill="black"/>
<line x1="98.2656" y1="240.302" x2="258.181" y2="240.302" stroke="#DADADA" stroke-width="0.803593"/>
<path d="M119.027 281.531C119.042 280.439 119.353 279.369 119.931 278.42C120.509 277.471 121.335 276.673 122.333 276.102C121.699 275.258 120.863 274.564 119.891 274.074C118.919 273.584 117.838 273.312 116.733 273.28C114.377 273.05 112.093 274.594 110.893 274.594C109.669 274.594 107.82 273.303 105.83 273.341C104.542 273.38 103.287 273.729 102.188 274.354C101.088 274.979 100.181 275.859 99.5542 276.908C96.8407 281.286 98.8647 287.721 101.464 291.26C102.764 292.993 104.284 294.929 106.273 294.86C108.219 294.785 108.946 293.704 111.295 293.704C113.622 293.704 114.304 294.86 116.333 294.816C118.422 294.785 119.737 293.076 120.992 291.326C121.926 290.092 122.645 288.727 123.122 287.283C121.909 286.805 120.874 286.004 120.146 284.981C119.417 283.958 119.028 282.758 119.027 281.531Z" fill="black"/>
<path d="M115.194 270.954C116.332 269.68 116.893 268.043 116.757 266.39C115.018 266.56 113.411 267.335 112.257 268.56C111.693 269.158 111.261 269.854 110.985 270.608C110.71 271.363 110.597 272.16 110.652 272.955C111.522 272.963 112.383 272.787 113.17 272.441C113.956 272.094 114.648 271.586 115.194 270.954Z" fill="black"/>
<path d="M143.626 290.471H136.985L135.39 294.86H132.577L138.867 278.623H141.79L148.08 294.86H145.219L143.626 290.471ZM137.673 288.446H142.937L140.342 281.324H140.269L137.673 288.446Z" fill="black"/>
<path d="M161.665 288.942C161.665 292.621 159.552 294.985 156.364 294.985C155.556 295.024 154.753 294.851 154.046 294.484C153.339 294.118 152.757 293.574 152.367 292.913H152.307V298.777H149.699V283.023H152.223V284.992H152.271C152.679 284.335 153.271 283.793 153.983 283.424C154.695 283.056 155.501 282.874 156.316 282.899C159.54 282.899 161.665 285.274 161.665 288.942ZM158.985 288.942C158.985 286.546 157.656 284.97 155.628 284.97C153.636 284.97 152.296 286.579 152.296 288.942C152.296 291.328 153.636 292.925 155.628 292.925C157.656 292.925 158.985 291.361 158.985 288.942Z" fill="black"/>
<path d="M175.646 288.942C175.646 292.621 173.533 294.985 170.345 294.985C169.537 295.024 168.734 294.851 168.027 294.484C167.321 294.118 166.739 293.574 166.348 292.913H166.288V298.777H163.681V283.023H166.204V284.992H166.252C166.661 284.335 167.252 283.793 167.965 283.424C168.677 283.056 169.483 282.874 170.297 282.899C173.521 282.899 175.646 285.274 175.646 288.942ZM172.966 288.942C172.966 286.546 171.637 284.97 169.609 284.97C167.617 284.97 166.277 286.579 166.277 288.942C166.277 291.328 167.617 292.925 169.609 292.925C171.637 292.925 172.966 291.361 172.966 288.942H172.966Z" fill="black"/>
<path d="M184.887 290.336C185.08 291.947 186.758 293.004 189.052 293.004C191.25 293.004 192.831 291.946 192.831 290.495C192.831 289.234 191.877 288.48 189.619 287.963L187.361 287.456C184.162 286.735 182.677 285.341 182.677 283.078C182.677 280.277 185.297 278.353 189.016 278.353C192.698 278.353 195.222 280.277 195.307 283.078H192.675C192.517 281.458 191.08 280.48 188.979 280.48C186.879 280.48 185.442 281.469 185.442 282.91C185.442 284.058 186.36 284.733 188.605 285.25L190.525 285.69C194.1 286.477 195.585 287.816 195.585 290.191C195.585 293.228 192.988 295.131 188.859 295.131C184.995 295.131 182.386 293.273 182.218 290.336L184.887 290.336Z" fill="black"/>
<path d="M201.212 280.221V283.022H203.627V284.947H201.212V291.473C201.212 292.487 201.695 292.959 202.757 292.959C203.044 292.954 203.33 292.936 203.615 292.903V294.816C203.138 294.899 202.652 294.936 202.167 294.928C199.595 294.928 198.592 294.028 198.592 291.732V284.947H196.745V283.022H198.592V280.221H201.212Z" fill="black"/>
<path d="M205.026 288.941C205.026 285.217 207.38 282.876 211.051 282.876C214.734 282.876 217.077 285.216 217.077 288.941C217.077 292.676 214.746 295.007 211.051 295.007C207.357 295.007 205.026 292.676 205.026 288.941ZM214.42 288.941C214.42 286.386 213.164 284.878 211.051 284.878C208.938 284.878 207.683 286.398 207.683 288.941C207.683 291.507 208.938 293.003 211.051 293.003C213.164 293.003 214.42 291.507 214.42 288.941H214.42Z" fill="black"/>
<path d="M219.227 283.022H221.713V285.037H221.774C221.942 284.408 222.338 283.852 222.894 283.462C223.45 283.073 224.134 282.874 224.829 282.899C225.13 282.898 225.429 282.928 225.722 282.989V285.262C225.343 285.154 224.947 285.104 224.551 285.115C224.172 285.101 223.795 285.163 223.444 285.298C223.093 285.432 222.778 285.636 222.52 285.895C222.262 286.153 222.067 286.461 221.949 286.797C221.83 287.132 221.791 287.488 221.834 287.839V294.861H219.227L219.227 283.022Z" fill="black"/>
<path d="M237.744 291.383C237.393 293.532 235.147 295.007 232.274 295.007C228.579 295.007 226.285 292.699 226.285 288.997C226.285 285.284 228.591 282.876 232.164 282.876C235.679 282.876 237.889 285.126 237.889 288.715V289.548H228.917V289.695C228.876 290.13 228.934 290.569 229.089 290.982C229.243 291.395 229.491 291.773 229.814 292.09C230.137 292.407 230.529 292.656 230.963 292.822C231.398 292.987 231.865 293.064 232.334 293.048C232.951 293.102 233.569 292.969 234.097 292.669C234.626 292.369 235.036 291.918 235.268 291.383L237.744 291.383ZM228.93 287.85H235.28C235.304 287.458 235.24 287.066 235.093 286.698C234.946 286.33 234.719 285.995 234.427 285.713C234.134 285.431 233.782 285.208 233.393 285.059C233.004 284.909 232.585 284.837 232.164 284.845C231.74 284.843 231.319 284.919 230.926 285.069C230.533 285.219 230.176 285.44 229.875 285.719C229.574 285.998 229.336 286.331 229.174 286.696C229.011 287.062 228.928 287.454 228.93 287.85V287.85Z" fill="black"/>
<path d="M137.346 266.403C137.893 266.367 138.441 266.444 138.952 266.629C139.463 266.814 139.924 267.102 140.3 267.473C140.677 267.844 140.961 268.288 141.131 268.773C141.302 269.259 141.354 269.773 141.285 270.28C141.285 272.773 139.84 274.205 137.346 274.205H134.322V266.403H137.346ZM135.623 273.102H137.201C137.592 273.124 137.982 273.064 138.345 272.927C138.708 272.79 139.033 272.58 139.298 272.311C139.562 272.042 139.759 271.722 139.874 271.373C139.989 271.025 140.019 270.657 139.962 270.296C140.015 269.937 139.982 269.571 139.865 269.225C139.748 268.879 139.551 268.561 139.287 268.294C139.023 268.028 138.699 267.819 138.339 267.682C137.978 267.546 137.59 267.486 137.201 267.506H135.623V273.102Z" fill="black"/>
<path d="M142.754 271.258C142.715 270.871 142.762 270.481 142.894 270.112C143.025 269.743 143.238 269.404 143.519 269.116C143.799 268.829 144.141 268.599 144.523 268.442C144.904 268.284 145.317 268.203 145.734 268.203C146.151 268.203 146.563 268.284 146.945 268.442C147.326 268.599 147.668 268.829 147.949 269.116C148.229 269.404 148.442 269.743 148.574 270.112C148.705 270.481 148.753 270.871 148.713 271.258C148.754 271.645 148.707 272.036 148.575 272.406C148.444 272.775 148.231 273.115 147.951 273.403C147.67 273.691 147.328 273.922 146.946 274.079C146.564 274.237 146.151 274.318 145.734 274.318C145.316 274.318 144.903 274.237 144.521 274.079C144.14 273.922 143.797 273.691 143.517 273.403C143.236 273.115 143.023 272.775 142.892 272.406C142.761 272.036 142.714 271.645 142.754 271.258ZM147.431 271.258C147.431 269.982 146.815 269.235 145.736 269.235C144.652 269.235 144.042 269.982 144.042 271.258C144.042 272.545 144.652 273.285 145.736 273.285C146.815 273.285 147.431 272.539 147.431 271.258H147.431Z" fill="black"/>
<path d="M156.634 274.204H155.34L154.035 269.868H153.936L152.636 274.204H151.355L149.613 268.316H150.878L152.01 272.809H152.103L153.402 268.316H154.598L155.897 272.809H155.995L157.122 268.316H158.368L156.634 274.204Z" fill="black"/>
<path d="M159.833 268.317H161.033V269.252H161.126C161.284 268.916 161.551 268.634 161.889 268.446C162.227 268.258 162.619 268.173 163.012 268.203C163.319 268.182 163.628 268.225 163.915 268.329C164.202 268.434 164.46 268.598 164.67 268.808C164.88 269.018 165.037 269.27 165.128 269.544C165.22 269.819 165.244 270.109 165.198 270.393V274.204H163.952V270.685C163.952 269.739 163.51 269.268 162.588 269.268C162.38 269.259 162.171 269.292 161.978 269.365C161.784 269.438 161.609 269.549 161.466 269.691C161.323 269.833 161.214 270.002 161.147 270.186C161.081 270.371 161.058 270.566 161.08 270.76V274.205H159.833L159.833 268.317Z" fill="black"/>
<path d="M167.185 266.019H168.431V274.205H167.185V266.019Z" fill="black"/>
<path d="M170.165 271.258C170.126 270.871 170.173 270.481 170.305 270.112C170.437 269.743 170.65 269.404 170.93 269.116C171.211 268.829 171.553 268.599 171.934 268.442C172.316 268.284 172.728 268.203 173.145 268.203C173.562 268.203 173.975 268.284 174.356 268.442C174.738 268.599 175.08 268.829 175.36 269.116C175.641 269.404 175.854 269.743 175.985 270.112C176.117 270.481 176.165 270.871 176.125 271.258C176.165 271.646 176.118 272.036 175.987 272.406C175.856 272.775 175.643 273.115 175.362 273.403C175.082 273.691 174.739 273.922 174.358 274.079C173.976 274.237 173.563 274.318 173.145 274.318C172.728 274.318 172.315 274.237 171.933 274.079C171.551 273.922 171.209 273.691 170.928 273.403C170.648 273.115 170.435 272.775 170.303 272.406C170.172 272.036 170.125 271.646 170.165 271.258ZM174.842 271.258C174.842 269.982 174.227 269.236 173.147 269.236C172.063 269.236 171.453 269.982 171.453 271.258C171.453 272.545 172.063 273.285 173.147 273.285C174.227 273.285 174.842 272.54 174.842 271.258H174.842Z" fill="black"/>
<path d="M177.437 272.539C177.437 271.48 178.283 270.869 179.786 270.782L181.498 270.69V270.182C181.498 269.56 181.056 269.209 180.204 269.209C179.508 269.209 179.026 269.447 178.888 269.863H177.68C177.808 268.852 178.829 268.203 180.262 268.203C181.846 268.203 182.739 268.938 182.739 270.182V274.205H181.539V273.377H181.44C181.24 273.674 180.959 273.916 180.625 274.078C180.292 274.241 179.918 274.318 179.542 274.302C179.277 274.327 179.009 274.301 178.756 274.224C178.502 274.147 178.268 274.022 178.07 273.856C177.872 273.69 177.713 273.487 177.604 273.26C177.494 273.034 177.438 272.788 177.437 272.539ZM181.498 272.036V271.544L179.955 271.636C179.085 271.69 178.69 271.966 178.69 272.485C178.69 273.015 179.183 273.323 179.862 273.323C180.06 273.342 180.261 273.324 180.452 273.269C180.643 273.213 180.82 273.123 180.972 273.003C181.125 272.883 181.25 272.736 181.34 272.569C181.431 272.403 181.484 272.222 181.498 272.036Z" fill="black"/>
<path d="M184.378 271.258C184.378 269.398 185.404 268.219 187 268.219C187.395 268.202 187.787 268.29 188.13 268.473C188.473 268.656 188.753 268.926 188.938 269.252H189.031V266.019H190.278V274.205H189.083V273.275H188.984C188.786 273.598 188.496 273.865 188.146 274.046C187.796 274.227 187.4 274.316 187 274.302C185.393 274.302 184.378 273.123 184.378 271.258ZM185.666 271.258C185.666 272.507 186.298 273.259 187.354 273.259C188.405 273.259 189.054 272.496 189.054 271.263C189.054 270.036 188.398 269.263 187.354 269.263C186.304 269.263 185.666 270.02 185.666 271.258H185.666Z" fill="black"/>
<path d="M195.436 271.258C195.396 270.871 195.444 270.481 195.575 270.112C195.707 269.743 195.92 269.404 196.201 269.116C196.481 268.829 196.823 268.599 197.204 268.442C197.586 268.284 197.998 268.203 198.415 268.203C198.832 268.203 199.245 268.284 199.626 268.442C200.008 268.599 200.35 268.829 200.63 269.116C200.911 269.404 201.124 269.743 201.255 270.112C201.387 270.481 201.434 270.871 201.395 271.258C201.435 271.645 201.388 272.036 201.257 272.406C201.126 272.775 200.913 273.115 200.632 273.403C200.352 273.691 200.009 273.922 199.628 274.079C199.246 274.237 198.833 274.318 198.415 274.318C197.998 274.318 197.585 274.237 197.203 274.079C196.821 273.922 196.479 273.691 196.198 273.403C195.918 273.115 195.705 272.775 195.574 272.406C195.442 272.036 195.395 271.645 195.436 271.258ZM200.112 271.258C200.112 269.982 199.497 269.235 198.417 269.235C197.334 269.235 196.724 269.982 196.724 271.258C196.724 272.545 197.334 273.285 198.417 273.285C199.497 273.285 200.112 272.539 200.112 271.258Z" fill="black"/>
<path d="M203.068 268.317H204.269V269.252H204.362C204.52 268.916 204.786 268.634 205.124 268.446C205.462 268.258 205.855 268.173 206.247 268.203C206.555 268.182 206.863 268.225 207.15 268.329C207.437 268.434 207.695 268.598 207.905 268.808C208.115 269.018 208.272 269.27 208.363 269.544C208.455 269.819 208.479 270.109 208.434 270.393V274.204H207.187V270.685C207.187 269.739 206.746 269.268 205.824 269.268C205.615 269.259 205.407 269.292 205.213 269.365C205.019 269.438 204.845 269.549 204.702 269.691C204.558 269.833 204.45 270.002 204.383 270.186C204.316 270.371 204.293 270.566 204.315 270.76V274.205H203.068V268.317Z" fill="black"/>
<path d="M215.48 266.852V268.344H216.848V269.323H215.48V272.351C215.48 272.967 215.752 273.237 216.373 273.237C216.532 273.237 216.691 273.228 216.848 273.211V274.178C216.625 274.216 216.398 274.236 216.17 274.238C214.784 274.238 214.231 273.783 214.231 272.648V269.323H213.229V268.344H214.231V266.852H215.48Z" fill="black"/>
<path d="M218.551 266.019H219.787V269.263H219.885C220.051 268.924 220.325 268.641 220.67 268.452C221.014 268.263 221.413 268.178 221.812 268.208C222.117 268.193 222.423 268.241 222.707 268.348C222.991 268.455 223.246 268.619 223.453 268.829C223.661 269.039 223.817 269.289 223.909 269.561C224.002 269.833 224.028 270.121 223.987 270.403V274.205H222.739V270.69C222.739 269.75 222.269 269.273 221.388 269.273C221.174 269.257 220.959 269.284 220.757 269.354C220.555 269.423 220.372 269.533 220.221 269.675C220.069 269.817 219.953 269.988 219.88 270.177C219.807 270.365 219.779 270.566 219.798 270.766V274.205H218.551L218.551 266.019Z" fill="black"/>
<path d="M231.257 272.615C231.088 273.153 230.721 273.619 230.22 273.93C229.72 274.241 229.118 274.379 228.52 274.318C228.103 274.329 227.69 274.254 227.307 274.101C226.925 273.947 226.583 273.718 226.306 273.428C226.028 273.139 225.821 272.797 225.699 272.426C225.578 272.055 225.544 271.664 225.601 271.279C225.546 270.894 225.58 270.502 225.701 270.129C225.823 269.757 226.028 269.414 226.304 269.122C226.581 268.83 226.921 268.597 227.302 268.439C227.683 268.28 228.097 268.2 228.514 268.203C230.272 268.203 231.332 269.322 231.332 271.171V271.577H226.871V271.642C226.852 271.858 226.881 272.075 226.957 272.28C227.033 272.485 227.154 272.673 227.312 272.832C227.471 272.991 227.663 273.117 227.877 273.203C228.091 273.288 228.321 273.331 228.554 273.329C228.852 273.362 229.154 273.312 229.422 273.185C229.689 273.058 229.911 272.859 230.057 272.615L231.257 272.615ZM226.871 270.717H230.062C230.078 270.52 230.049 270.321 229.978 270.135C229.906 269.948 229.794 269.778 229.647 269.634C229.501 269.49 229.324 269.377 229.127 269.301C228.931 269.225 228.72 269.188 228.507 269.192C228.292 269.19 228.078 269.227 227.878 269.303C227.678 269.379 227.497 269.491 227.344 269.633C227.192 269.775 227.071 269.945 226.99 270.131C226.909 270.317 226.868 270.516 226.871 270.717H226.871Z" fill="black"/>
</g>
<defs>
<filter id="filter0_d_27_10676" x="0.744888" y="0.947542" width="344.51" height="391.922" filterUnits="userSpaceOnUse" color-interpolation-filters="sRGB">
<feFlood flood-opacity="0" result="BackgroundImageFix"/>
<feColorMatrix in="SourceAlpha" type="matrix" values="0 0 0 0 0 0 0 0 0 0 0 0 0 0 0 0 0 0 127 0" result="hardAlpha"/>
<feOffset dy="3.21437"/>
<feGaussianBlur stdDeviation="35.9029"/>
<feComposite in2="hardAlpha" operator="out"/>
<feColorMatrix type="matrix" values="0 0 0 0 0 0 0 0 0 0 0 0 0 0 0 0 0 0 0.1 0"/>
<feBlend mode="normal" in2="BackgroundImageFix" result="effect1_dropShadow_27_10676"/>
<feBlend mode="normal" in="SourceGraphic" in2="effect1_dropShadow_27_10676" result="shape"/>
</filter>
</defs>
</svg>
