<svg width="19" height="19" viewBox="0 0 19 19" fill="none" xmlns="http://www.w3.org/2000/svg">
<g clip-path="url(#clip0_27_10387)">
<path d="M16.4727 11.0422C16.7523 11.3266 16.9153 11.7054 16.9297 12.104C16.9297 13.7071 13.9414 15.029 10.0742 15.2399" stroke="black" stroke-width="1.125" stroke-linecap="round" stroke-linejoin="round"/>
<path d="M3.31391 8.78346C2.85861 8.78346 2.4595 8.7071 2.11658 8.55437C1.77654 8.40164 1.50711 8.18984 1.30827 7.91896C1.11232 7.6452 0.999936 7.32966 0.971119 6.97233L0.966797 6.92046H2.03013L2.03445 6.96801C2.05462 7.14379 2.11946 7.30084 2.22897 7.43916C2.33847 7.5746 2.48543 7.68122 2.66986 7.75903C2.85429 7.83395 3.06897 7.87141 3.31391 7.87141C3.55309 7.87141 3.76201 7.82963 3.94067 7.74606C4.12222 7.66249 4.26342 7.54723 4.36428 7.40026C4.46514 7.2533 4.51557 7.08328 4.51557 6.89021V6.88156C4.51557 6.55305 4.40174 6.30091 4.17409 6.12512C3.94644 5.94934 3.63234 5.86145 3.23178 5.86145H2.49264V5.03153H3.21017C3.43782 5.03153 3.6381 4.99119 3.811 4.9105C3.9839 4.82982 4.1179 4.72031 4.21299 4.58199C4.30809 4.44079 4.35563 4.27942 4.35563 4.09787V4.08923C4.35563 3.89616 4.31385 3.7319 4.23028 3.59647C4.14959 3.46103 4.03 3.35729 3.87151 3.28525C3.7159 3.2132 3.52715 3.17718 3.30527 3.17718C3.08626 3.17718 2.89175 3.21464 2.72173 3.28957C2.55459 3.36449 2.4206 3.47111 2.31974 3.60943C2.21888 3.74487 2.15836 3.9048 2.13819 4.08923L2.13387 4.13245H1.10079L1.10512 4.08058C1.13682 3.72038 1.24632 3.40772 1.43363 3.1426C1.62382 2.87461 1.8774 2.66713 2.19439 2.52016C2.51425 2.37032 2.88454 2.29539 3.30527 2.29539C3.73463 2.29539 4.10781 2.36599 4.42479 2.5072C4.74178 2.64552 4.98672 2.83715 5.15962 3.08209C5.3354 3.32703 5.42329 3.61376 5.42329 3.94226V3.95091C5.42329 4.20738 5.36566 4.43503 5.25039 4.63386C5.138 4.82982 4.98239 4.99263 4.78356 5.12231C4.58761 5.25198 4.36428 5.34275 4.11357 5.39462V5.41624C4.57464 5.45946 4.94493 5.61219 5.22445 5.87442C5.50398 6.13377 5.64374 6.47957 5.64374 6.91182V6.92046C5.64374 7.28355 5.54576 7.6063 5.34981 7.8887C5.15385 8.16822 4.8801 8.38723 4.52853 8.54572C4.17985 8.70421 3.77498 8.78346 3.31391 8.78346Z" fill="black"/>
<path d="M9.19683 8.81372C8.86544 8.81372 8.54989 8.7532 8.2502 8.63217C7.95051 8.50826 7.68395 8.31807 7.45054 8.0616C7.22001 7.80225 7.03846 7.4723 6.9059 7.07175C6.77335 6.66832 6.70707 6.1842 6.70707 5.61939V5.61075C6.70707 4.9105 6.80793 4.31112 7.00964 3.81259C7.21136 3.31118 7.49953 2.92792 7.87414 2.66281C8.25164 2.39769 8.70118 2.26514 9.22276 2.26514C9.60314 2.26514 9.9475 2.33574 10.2558 2.47694C10.5642 2.61526 10.8192 2.80689 11.0209 3.05183C11.2226 3.29677 11.3566 3.57918 11.4229 3.89904L11.4316 3.94659H10.338L10.3207 3.90336C10.2659 3.7564 10.1867 3.6296 10.0829 3.52298C9.98208 3.41348 9.85817 3.32991 9.7112 3.27228C9.56712 3.21176 9.40431 3.18151 9.22276 3.18151C8.89137 3.18151 8.62049 3.27948 8.41013 3.47544C8.20265 3.66851 8.04704 3.92786 7.9433 4.25348C7.84245 4.57911 7.78337 4.9422 7.76608 5.34275C7.7632 5.3831 7.76176 5.42488 7.76176 5.46811C7.76176 5.50845 7.76176 5.55023 7.76176 5.59346L7.95627 6.63518C7.95627 6.87148 8.01102 7.08616 8.12053 7.27923C8.23003 7.4723 8.37843 7.62503 8.56574 7.73742C8.75305 7.8498 8.96053 7.90599 9.18818 7.90599C9.41872 7.90599 9.62764 7.85124 9.81494 7.74174C10.0023 7.62935 10.1507 7.47951 10.2602 7.2922C10.3697 7.10201 10.4244 6.89165 10.4244 6.66111V6.65247C10.4244 6.41041 10.3711 6.19717 10.2645 6.01274C10.1607 5.82543 10.0167 5.67847 9.83223 5.57185C9.64781 5.46522 9.43745 5.41191 9.20115 5.41191C8.96773 5.41191 8.75593 5.46378 8.56574 5.56752C8.37843 5.67126 8.23003 5.81535 8.12053 5.99977C8.01102 6.1842 7.95627 6.39312 7.95627 6.62653V6.63518H7.69692V5.4854H7.84821C7.92601 5.32114 8.03696 5.16841 8.18104 5.02721C8.32801 4.88601 8.50955 4.77218 8.72568 4.68573C8.9418 4.59928 9.19106 4.55606 9.47347 4.55606C9.87402 4.55606 10.227 4.64539 10.5325 4.82405C10.8408 5.00272 11.0814 5.24766 11.2543 5.55888C11.4272 5.86722 11.5137 6.21878 11.5137 6.61357V6.62221C11.5137 7.04582 11.4143 7.42187 11.2154 7.75038C11.0166 8.07889 10.7428 8.33824 10.3942 8.52843C10.0484 8.71862 9.64925 8.81372 9.19683 8.81372Z" fill="black"/>
<path d="M15.0063 8.81372C14.5106 8.81372 14.0856 8.68116 13.7311 8.41605C13.3796 8.15093 13.1087 7.77344 12.9185 7.28355C12.7283 6.79367 12.6332 6.21302 12.6332 5.54159V5.53294C12.6332 4.86152 12.7283 4.2823 12.9185 3.7953C13.1087 3.30542 13.3796 2.92792 13.7311 2.66281C14.0856 2.39769 14.5106 2.26514 15.0063 2.26514C15.5019 2.26514 15.927 2.39769 16.2814 2.66281C16.6358 2.92792 16.9082 3.30542 17.0983 3.7953C17.2885 4.2823 17.3836 4.86152 17.3836 5.53294V5.54159C17.3836 6.21302 17.2885 6.79367 17.0983 7.28355C16.9082 7.77344 16.6358 8.15093 16.2814 8.41605C15.927 8.68116 15.5019 8.81372 15.0063 8.81372ZM15.0063 7.91031C15.2714 7.91031 15.4976 7.81522 15.6849 7.62503C15.8722 7.43484 16.0148 7.16396 16.1128 6.8124C16.2137 6.45796 16.2641 6.03435 16.2641 5.54159V5.53294C16.2641 5.04018 16.2137 4.61801 16.1128 4.26645C16.0148 3.91201 15.8722 3.64113 15.6849 3.45382C15.4976 3.26363 15.2714 3.16854 15.0063 3.16854C14.7411 3.16854 14.5149 3.26363 14.3276 3.45382C14.1432 3.64113 14.0006 3.91201 13.8997 4.26645C13.8017 4.61801 13.7527 5.04018 13.7527 5.53294V5.54159C13.7527 6.03435 13.8017 6.45796 13.8997 6.8124C14.0006 7.16396 14.1432 7.43484 14.3276 7.62503C14.5149 7.81522 14.7411 7.91031 15.0063 7.91031Z" fill="black"/>
<path d="M5.85645 13.1584L6.91113 15.2678L5.3291 16.8499" stroke="black" stroke-width="1.125" stroke-linecap="round" stroke-linejoin="round"/>
<path d="M1.58008 11.0422C1.30325 11.3285 1.14069 11.7061 1.12305 12.104C1.12305 13.5102 1.36211 15.254 6.90273 15.261" stroke="black" stroke-width="1.125" stroke-linecap="round" stroke-linejoin="round"/>
</g>
<defs>
<clipPath id="clip0_27_10387">
<rect width="18" height="18" fill="white" transform="translate(0.0263672 0.727051)"/>
</clipPath>
</defs>
</svg>
