<svg width="124" height="43" viewBox="0 0 124 43" fill="none" xmlns="http://www.w3.org/2000/svg">
<g clip-path="url(#clip0_146_69)">
<path d="M116.07 0.244141H7.86859C3.62429 0.244141 0.183594 3.68483 0.183594 7.92914V34.1901C0.183594 38.4344 3.62429 41.8751 7.86859 41.8751H116.07C120.314 41.8751 123.755 38.4344 123.755 34.1901V7.92914C123.755 3.68483 120.314 0.244141 116.07 0.244141Z" fill="black"/>
<path d="M116.07 0.244141H7.86859C3.62429 0.244141 0.183594 3.68483 0.183594 7.92914V34.1901C0.183594 38.4344 3.62429 41.8751 7.86859 41.8751H116.07C120.314 41.8751 123.755 38.4344 123.755 34.1901V7.92914C123.755 3.68483 120.314 0.244141 116.07 0.244141Z" stroke="black" stroke-width="0.369"/>
<path d="M24.9863 21.7609C24.9973 20.9155 25.2218 20.0867 25.6392 19.3515C26.0565 18.6163 26.6531 17.9986 27.3733 17.5559C26.9158 16.9025 26.3123 16.3648 25.6106 15.9855C24.909 15.6062 24.1285 15.3958 23.3313 15.3709C21.6313 15.1919 19.9813 16.3879 19.1153 16.3879C18.2313 16.3879 16.8973 15.3879 15.4603 15.4179C14.5309 15.448 13.6252 15.7183 12.8313 16.2025C12.0374 16.6868 11.3825 17.3683 10.9303 18.1809C8.97131 21.5709 10.4323 26.5559 12.3093 29.2969C13.2483 30.6389 14.3453 32.1389 15.7803 32.0849C17.1853 32.0269 17.7103 31.1899 19.4053 31.1899C21.0853 31.1899 21.5773 32.0848 23.0423 32.0518C24.5503 32.0268 25.4993 30.7029 26.4053 29.3479C27.0799 28.3915 27.5989 27.3344 27.9433 26.2159C27.0675 25.8456 26.3201 25.2257 25.7943 24.4334C25.2684 23.6412 24.9874 22.7117 24.9863 21.7609ZM22.2203 13.5679C23.0423 12.5813 23.4473 11.3132 23.3493 10.0329C22.0934 10.1646 20.9333 10.7648 20.1003 11.7139C19.6931 12.1774 19.3813 12.7166 19.1826 13.3006C18.9839 13.8847 18.9023 14.5022 18.9423 15.1179C19.5704 15.1243 20.1917 14.9882 20.7595 14.7197C21.3273 14.4512 21.8268 14.0574 22.2203 13.5679ZM101.235 13.6299C101.235 13.8059 101.219 13.9179 101.211 14.0219H97.7953C97.9073 14.6779 98.3473 15.2459 99.2993 15.2459C99.8113 15.2459 100.403 15.0539 100.795 14.7659L101.123 15.3499C100.739 15.6539 100.043 15.9499 99.2833 15.9499C97.6593 15.9499 96.9953 14.8139 96.9953 13.6939C96.9953 12.4219 97.8673 11.4619 99.1633 11.4619C100.355 11.4619 101.235 12.2699 101.235 13.6299ZM99.1633 12.1419C98.4433 12.1419 97.9233 12.6539 97.7953 13.3579H100.443C100.395 12.5979 99.8513 12.1419 99.1633 12.1419ZM92.4203 15.8539V9.79785H93.1633V12.0939C93.4193 11.7179 93.9233 11.4539 94.5233 11.4539C95.4113 11.4539 96.2113 12.0299 96.2113 13.2539V15.8539H95.4513V13.4699C95.4513 12.5979 94.9873 12.1659 94.3633 12.1659C93.6673 12.1659 93.1873 12.7019 93.1873 13.4699V15.8539H92.4203ZM91.6163 15.0059L91.9043 15.5979C91.5923 15.8379 91.1683 15.9579 90.7603 15.9579C89.8323 15.9579 89.3923 15.3499 89.3923 14.3499V12.2219H88.6323V11.5659H89.4003V10.0459H90.1523V11.5659H91.6723V12.2219H90.1523V14.4059C90.1523 14.9259 90.3363 15.2539 90.8483 15.2539C91.1203 15.2539 91.3843 15.1499 91.6163 15.0059ZM82.5033 15.8539V11.5659H83.2553V12.1739C83.5113 11.7179 84.0073 11.4539 84.6153 11.4539C85.5033 11.4539 86.3113 12.0299 86.3113 13.2539V15.8539H85.5513V13.4699C85.5513 12.6059 85.0793 12.1659 84.4553 12.1659C83.7593 12.1659 83.2713 12.7099 83.2713 13.4779V15.8539H82.5033ZM79.4373 15.9579C78.1093 15.9579 77.1813 14.9579 77.1813 13.7019C77.1813 12.4699 78.1093 11.4539 79.4373 11.4539C80.7573 11.4539 81.6853 12.4699 81.6853 13.7019C81.6853 14.9579 80.7573 15.9579 79.4373 15.9579ZM79.4373 15.2539C80.2693 15.2539 80.9173 14.5499 80.9173 13.7019C80.9173 12.8699 80.2693 12.1659 79.4373 12.1659C78.6053 12.1659 77.9573 12.8699 77.9573 13.7019C77.9573 14.5499 78.6053 15.2539 79.4373 15.2539ZM73.7133 9.79785H74.4813V15.8539H73.7133V15.2539C73.5364 15.4781 73.3101 15.6583 73.0519 15.7805C72.7938 15.9026 72.5108 15.9633 72.2253 15.9579C70.9693 15.9579 70.0653 14.9579 70.0653 13.7019C70.0653 12.4619 70.9773 11.4619 72.2093 11.4619C72.4992 11.459 72.7857 11.5233 73.0466 11.6496C73.3075 11.7759 73.5357 11.9608 73.7133 12.1899V9.79785ZM72.3053 15.2539C73.2013 15.2539 73.7693 14.5499 73.7693 13.7019C73.7693 12.8699 73.2013 12.1659 72.3053 12.1659C71.4093 12.1659 70.8413 12.8699 70.8413 13.7019C70.8413 14.5499 71.4093 15.2539 72.3053 15.2539ZM68.5003 11.5659H69.2363V15.8539H68.4993V15.2459C68.3192 15.4728 68.0892 15.6552 67.8271 15.7787C67.565 15.9022 67.278 15.9635 66.9883 15.9579C65.7553 15.9579 64.8443 14.9659 64.8443 13.6779C64.8443 12.3979 65.7563 11.4619 66.9883 11.4619C67.6123 11.4619 68.1243 11.7339 68.4993 12.1899L68.5003 11.5659ZM67.0763 15.2539C67.9723 15.2539 68.5483 14.5499 68.5483 13.7019C68.5483 12.8699 67.9723 12.1659 67.0763 12.1659C66.1803 12.1659 65.6203 12.8699 65.6203 13.7099C65.6203 14.5499 66.1803 15.2539 67.0763 15.2539ZM62.0413 15.9579C60.7133 15.9579 59.7853 14.9579 59.7853 13.7019C59.7853 12.4699 60.7133 11.4539 62.0413 11.4539C63.3613 11.4539 64.2893 12.4699 64.2893 13.7019C64.2893 14.9579 63.3613 15.9579 62.0413 15.9579ZM62.0413 15.2539C62.8733 15.2539 63.5213 14.5499 63.5213 13.7019C63.5213 12.8699 62.8733 12.1659 62.0413 12.1659C61.2093 12.1659 60.5613 12.8699 60.5613 13.7019C60.5613 14.5499 61.2093 15.2539 62.0413 15.2539ZM58.9553 15.8539H58.1873V9.79785H58.9553V15.8539ZM53.3403 15.8539V11.5659H54.0923V12.1739C54.3483 11.7179 54.8443 11.4539 55.4523 11.4539C56.3403 11.4539 57.1483 12.0299 57.1483 13.2539V15.8539H56.3883V13.4699C56.3883 12.6059 55.9163 12.1659 55.2923 12.1659C54.5963 12.1659 54.1083 12.7099 54.1083 13.4779V15.8539H53.3403ZM47.6873 15.8449L46.2153 11.5649H47.0233L48.0393 14.7809L49.2073 11.5649H49.7433L50.9593 14.7809L51.9353 11.5649H52.7353L51.3033 15.8449H50.6633L49.4793 12.6369L48.3193 15.8449H47.6873ZM43.7473 15.9579C42.4193 15.9579 41.4913 14.9579 41.4913 13.7019C41.4913 12.4699 42.4193 11.4539 43.7473 11.4539C45.0673 11.4539 45.9953 12.4699 45.9953 13.7019C45.9953 14.9579 45.0673 15.9579 43.7473 15.9579ZM43.7473 15.2539C44.5793 15.2539 45.2273 14.5499 45.2273 13.7019C45.2273 12.8699 44.5793 12.1659 43.7473 12.1659C42.9153 12.1659 42.2673 12.8699 42.2673 13.7019C42.2673 14.5499 42.9153 15.2539 43.7473 15.2539ZM35.9433 15.8529V9.94085H38.1433C39.8153 9.94085 40.8633 11.0849 40.8633 12.9089C40.8633 14.7169 39.8073 15.8529 38.0633 15.8529H35.9433ZM36.7433 15.0929H38.0953C39.3513 15.0929 40.0313 14.1329 40.0313 12.8849C40.0313 11.6529 39.3513 10.7009 38.0953 10.7009H36.7433V15.0929ZM41.8063 27.6999H38.2823L37.4363 30.1419H35.9433L39.2813 21.1079H40.8313L44.1703 30.1419H42.6503L41.8053 27.7009L41.8063 27.6999ZM38.6463 26.5739H41.4403L40.0633 22.6109H40.0253L38.6463 26.5739ZM51.3793 26.8499C51.3793 28.8969 50.2573 30.2119 48.5663 30.2119C48.1385 30.2337 47.7128 30.1372 47.3363 29.9329C46.9633 29.7312 46.6545 29.4287 46.4453 29.0599H46.4133V32.3218H45.0293V23.5559H46.3693V24.6519H46.3943C46.6103 24.2859 46.9243 23.9849 47.3023 23.7799C47.6817 23.5742 48.109 23.4731 48.5403 23.4869C50.2503 23.4869 51.3793 24.8089 51.3793 26.8499ZM49.9563 26.8499C49.9563 25.5159 49.2513 24.6399 48.1763 24.6399C47.1183 24.6399 46.4063 25.5349 46.4063 26.8499C46.4063 28.1769 47.1183 29.0659 48.1763 29.0659C49.2513 29.0659 49.9563 28.1959 49.9563 26.8499ZM58.7973 26.8499C58.7973 28.8969 57.6773 30.2119 55.9843 30.2119C55.5565 30.2337 55.1308 30.1372 54.7543 29.9329C54.3815 29.7308 54.0731 29.4279 53.8643 29.0589H53.8323V32.3218H52.4483V23.5559H53.7883V24.6519H53.8133C54.0293 24.2859 54.3433 23.9849 54.7213 23.7799C55.1007 23.5742 55.528 23.4731 55.9593 23.4869C57.6693 23.4869 58.7973 24.8089 58.7973 26.8499ZM57.3753 26.8499C57.3753 25.5159 56.6703 24.6399 55.5943 24.6399C54.5373 24.6399 53.8263 25.5349 53.8263 26.8499C53.8263 28.1769 54.5363 29.0659 55.5943 29.0659C56.6703 29.0659 57.3753 28.1959 57.3753 26.8499ZM63.7003 27.6249C63.8033 28.5209 64.6943 29.1099 65.9113 29.1099C67.0773 29.1099 67.9163 28.5209 67.9163 27.7139C67.9163 27.0119 67.4103 26.5929 66.2123 26.3039L65.0143 26.0229C63.3163 25.6219 62.5283 24.8459 62.5283 23.5869C62.5283 22.0289 63.9183 20.9579 65.8923 20.9579C67.8463 20.9579 69.1853 22.0279 69.2303 23.5879H67.8333C67.7503 22.6859 66.9873 22.1419 65.8733 22.1419C64.7583 22.1419 63.9953 22.6919 63.9953 23.4939C63.9953 24.1319 64.4823 24.5079 65.6743 24.7959L66.6933 25.0399C68.5903 25.4789 69.3783 26.2229 69.3783 27.5439C69.3783 29.2339 68.0003 30.2939 65.8083 30.2939C63.7583 30.2939 62.3743 29.2589 62.2843 27.6249H63.7003ZM72.3643 21.9969V23.5559H73.6453V24.6259H72.3643V28.2569C72.3643 28.8209 72.6203 29.0839 73.1843 29.0839C73.3363 29.0819 73.4883 29.0709 73.6393 29.0539V30.1169C73.3863 30.1629 73.1293 30.1839 72.8703 30.1799C71.5063 30.1799 70.9733 29.6789 70.9733 28.4019V24.6259H69.9933V23.5559H70.9733V21.9969H72.3643ZM74.3883 26.8499C74.3883 24.7769 75.6373 23.4749 77.5853 23.4749C79.5393 23.4749 80.7833 24.7769 80.7833 26.8489C80.7833 28.9269 79.5463 30.2239 77.5853 30.2239C75.6253 30.2239 74.3883 28.9279 74.3883 26.8499ZM79.3733 26.8499C79.3733 25.4279 78.7063 24.5889 77.5853 24.5889C76.4643 24.5889 75.7983 25.4339 75.7983 26.8489C75.7983 28.2759 76.4643 29.1089 77.5853 29.1089C78.7063 29.1089 79.3733 28.2769 79.3733 26.8499ZM81.9233 23.5559H83.2433V24.6769H83.2753C83.3643 24.3269 83.5743 24.0169 83.8693 23.8009C84.1666 23.5838 84.5285 23.4735 84.8963 23.4879C85.0563 23.4869 85.2153 23.5039 85.3703 23.5379V24.8019C85.1689 24.742 84.9593 24.7147 84.7493 24.7209C84.5493 24.7131 84.3499 24.7477 84.1641 24.8223C83.9784 24.8969 83.8104 25.0099 83.6713 25.1539C83.5356 25.2969 83.4328 25.4678 83.3699 25.6547C83.307 25.8416 83.2857 26.0399 83.3073 26.2359V30.1429H81.9233V23.5559ZM91.7503 28.2069C91.5633 29.4029 90.3723 30.2239 88.8473 30.2239C86.8863 30.2239 85.6693 28.9399 85.6693 26.8799C85.6693 24.8139 86.8933 23.4749 88.7893 23.4749C90.6543 23.4749 91.8263 24.7259 91.8263 26.7229V27.1869H87.0663V27.2679C87.0438 27.5112 87.0746 27.7566 87.1566 27.9868C87.2387 28.217 87.3699 28.4266 87.5413 28.6009C87.7153 28.7775 87.924 28.9161 88.1543 29.0079C88.3847 29.0996 88.6315 29.1425 88.8793 29.1339C89.2063 29.1639 89.5343 29.0899 89.8153 28.9229C90.0937 28.7577 90.3112 28.5068 90.4353 28.2079H91.7493L91.7503 28.2069ZM87.0723 26.2419H90.4423C90.4552 26.0227 90.4216 25.8034 90.3435 25.5983C90.2654 25.3931 90.1447 25.2069 89.9893 25.0519C89.832 24.8948 89.6447 24.7712 89.4385 24.6882C89.2323 24.6052 89.0115 24.5646 88.7893 24.5689C88.3364 24.567 87.9005 24.7417 87.5743 25.0559C87.416 25.2103 87.2901 25.3947 87.2039 25.5983C87.1177 25.802 87.073 26.0207 87.0723 26.2419Z" fill="white"/>
</g>
<defs>
<clipPath id="clip0_146_69">
<rect width="124" height="43" fill="white"/>
</clipPath>
</defs>
</svg>
