<svg width="39" height="40" viewBox="0 0 39 40" fill="none" xmlns="http://www.w3.org/2000/svg">
<path d="M3.97656 12.2383V7.06379C3.97656 5.63492 5.13492 4.47656 6.56379 4.47656H11.7383" stroke="black" stroke-width="2.2" stroke-linecap="round" stroke-linejoin="round"/>
<path d="M27.2617 4.47656H32.4362C33.8651 4.47656 35.0234 5.63492 35.0234 7.06379V12.2383" stroke="black" stroke-width="2.2" stroke-linecap="round" stroke-linejoin="round"/>
<path d="M35.0234 27.7617V32.9362C35.0234 34.3651 33.8651 35.5234 32.4362 35.5234H27.2617" stroke="black" stroke-width="2.2" stroke-linecap="round" stroke-linejoin="round"/>
<path d="M11.7383 35.5234H6.56379C5.13492 35.5234 3.97656 34.3651 3.97656 32.9362V27.7617" stroke="black" stroke-width="2.2" stroke-linecap="round" stroke-linejoin="round"/>
<path d="M16.8582 14.5437L18.7774 9.88278C18.8727 9.65117 19.0985 9.5 19.3489 9.5C19.5994 9.5 19.8251 9.65117 19.9205 9.88278L21.8397 14.5437C22.3651 15.8196 23.3783 16.8328 24.6542 17.3582L29.3152 19.2774C29.5468 19.3727 29.6979 19.5985 29.6979 19.8489C29.6979 20.0994 29.5468 20.3251 29.3152 20.4205L24.6542 22.3397C23.3783 22.865 22.3651 23.8783 21.8397 25.1542L19.9205 29.8152C19.8251 30.0468 19.5994 30.1979 19.3489 30.1979C19.0985 30.1979 18.8727 30.0468 18.7774 29.8152L16.8582 25.1542C16.3328 23.8783 15.3196 22.865 14.0437 22.3397L9.38278 20.4205C9.15117 20.3251 9 20.0994 9 19.8489C9 19.5985 9.15117 19.3727 9.38278 19.2774L14.0437 17.3582C15.3196 16.8328 16.3328 15.8196 16.8582 14.5437Z" stroke="#28B0FF" stroke-width="2.2" stroke-linecap="round" stroke-linejoin="round"/>
</svg>
