<svg width="32" height="32" viewBox="0 0 32 32" fill="none" xmlns="http://www.w3.org/2000/svg">
<path d="M5.09009 10.8382L12.9319 2.99636C13.7064 2.22192 14.962 2.22192 15.7364 2.99636C16.2053 3.46521 16.4088 4.13735 16.2788 4.78754L15.9266 6.5483C15.8283 7.0396 15.9821 7.54751 16.3364 7.90179C16.6583 8.22368 17.1091 8.3818 17.5615 8.33153L19.1252 8.15779C19.7254 8.0911 20.3233 8.30086 20.7503 8.72785C21.0123 8.98982 21.1959 9.31978 21.2803 9.68054L23.2911 18.2733C23.4685 19.0315 23.8544 19.7252 24.4049 20.2759L27.5838 23.4546C28.9851 24.8559 28.9851 27.1276 27.5838 28.5286C26.911 29.2016 25.9984 29.5795 25.0468 29.5795H21.3837C19.1672 29.5795 17.0416 28.6991 15.4743 27.1317L5.09009 16.7476C3.45825 15.1157 3.45825 12.47 5.09009 10.8382Z" stroke="black" stroke-width="2.25" stroke-linecap="round" stroke-linejoin="round"/>
<path d="M23.6623 29.5805L9.09936 15.0175C8.31579 14.2339 7.25307 13.7937 6.14496 13.7936L4.00098 13.7935" stroke="black" stroke-width="2.25" stroke-linecap="round" stroke-linejoin="round"/>
</svg>
