<svg width="17" height="17" viewBox="0 0 17 17" fill="none" xmlns="http://www.w3.org/2000/svg">
<path d="M4.55176 6.24447V5.68059C4.55176 3.50061 6.31897 1.7334 8.49895 1.7334C10.6789 1.7334 12.4461 3.50061 12.4461 5.68059V6.24447" stroke="#223F50" stroke-width="1.21125" stroke-linecap="round" stroke-linejoin="round"/>
<path d="M12.4463 10.7552V6.24414H14.1379C14.7608 6.24414 15.2657 6.74906 15.2657 7.37191V9.62744C15.2657 10.2503 14.7608 10.7552 14.1379 10.7552H12.4463Z" stroke="#223F50" stroke-width="1.21125" stroke-linecap="round" stroke-linejoin="round"/>
<path d="M12.4456 10.7559V11.8836C12.4456 12.9346 11.7267 13.8177 10.7539 14.0681" stroke="#223F50" stroke-width="1.21125" stroke-linecap="round" stroke-linejoin="round"/>
<path d="M9.62744 15.2673H7.37191C6.74906 15.2673 6.24414 14.7624 6.24414 14.1395C6.24414 13.5166 6.74906 13.0117 7.37191 13.0117H9.62744C10.2503 13.0117 10.7552 13.5166 10.7552 14.1395C10.7552 14.7624 10.2503 15.2673 9.62744 15.2673Z" stroke="#223F50" stroke-width="1.21125" stroke-linecap="round" stroke-linejoin="round"/>
<path d="M1.73242 9.62744V7.37191C1.73242 6.74906 2.23735 6.24414 2.86019 6.24414H4.55184V10.7552H2.86019C2.23735 10.7552 1.73242 10.2503 1.73242 9.62744Z" stroke="#223F50" stroke-width="1.21125" stroke-linecap="round" stroke-linejoin="round"/>
</svg>
