<svg width="17" height="17" viewBox="0 0 17 17" fill="none" xmlns="http://www.w3.org/2000/svg">
<path d="M13.5746 6.80859H3.42464C2.8018 6.80859 2.29688 7.31352 2.29688 7.93636V14.703C2.29688 15.3258 2.8018 15.8307 3.42464 15.8307H13.5746C14.1974 15.8307 14.7023 15.3258 14.7023 14.703V7.93636C14.7023 7.31352 14.1974 6.80859 13.5746 6.80859Z" stroke="#223F50" stroke-width="1.21125" stroke-linecap="round" stroke-linejoin="round"/>
<path d="M12.4461 6.80876V5.11711C12.4461 4.07025 12.0303 3.06626 11.29 2.32603C10.5498 1.58579 9.54581 1.16992 8.49895 1.16992C7.45208 1.16992 6.4481 1.58579 5.70787 2.32603C4.96762 3.06626 4.55176 4.07025 4.55176 5.11711V6.80876" stroke="#223F50" stroke-width="1.21125" stroke-linecap="round" stroke-linejoin="round"/>
<path d="M8.49943 11.8836C8.81085 11.8836 9.06331 11.6312 9.06331 11.3197C9.06331 11.0083 8.81085 10.7559 8.49943 10.7559C8.18801 10.7559 7.93555 11.0083 7.93555 11.3197C7.93555 11.6312 8.18801 11.8836 8.49943 11.8836Z" stroke="#223F50" stroke-width="1.21125" stroke-linecap="round" stroke-linejoin="round"/>
</svg>
