<svg width="40" height="40" viewBox="0 0 40 40" fill="none" xmlns="http://www.w3.org/2000/svg">
<path d="M18.0635 3.56543V6.01488" stroke="#28B0FF" stroke-width="2.63077" stroke-linecap="round" stroke-linejoin="round"/>
<path d="M25.4121 13.3628H27.8616" stroke="#28B0FF" stroke-width="2.63077" stroke-linecap="round" stroke-linejoin="round"/>
<path d="M10.7161 13.3628H8.2666" stroke="#28B0FF" stroke-width="2.63077" stroke-linecap="round" stroke-linejoin="round"/>
<path d="M23.2588 8.1666L24.9908 6.43457" stroke="#28B0FF" stroke-width="2.63077" stroke-linecap="round" stroke-linejoin="round"/>
<path d="M12.8678 8.1666L11.1357 6.43457" stroke="#28B0FF" stroke-width="2.63077" stroke-linecap="round" stroke-linejoin="round"/>
<path d="M32.872 35.4081L33.3487 30.1628C33.6884 26.4256 30.7077 23.2214 26.9557 23.2907L21.1257 23.3985V13.9754C21.1257 12.2844 19.7548 10.9136 18.0638 10.9136C16.3728 10.9136 15.002 12.2844 15.002 13.9754V29.2845L12.0923 26.3747C10.9937 25.2761 9.21256 25.2761 8.11401 26.3747C7.14165 27.3469 7.01477 28.8798 7.81405 29.999L11.6778 35.4081" stroke="black" stroke-width="2.63077" stroke-linecap="round" stroke-linejoin="round"/>
</svg>
