<svg width="44" height="40" viewBox="0 0 44 40" fill="none" xmlns="http://www.w3.org/2000/svg">
<path d="M14.7993 28.5223H13.6716C12.4259 28.5223 11.416 27.5125 11.416 26.2668V9.35026C11.416 8.10457 12.4259 7.09473 13.6716 7.09473H29.4603C30.706 7.09473 31.7158 8.10457 31.7158 9.35026V19.5002H40.738V26.2668C40.738 27.5125 39.7282 28.5223 38.4824 28.5223H36.2269" stroke="black" stroke-width="2.4225" stroke-linecap="round" stroke-linejoin="round"/>
<path d="M40.737 19.5L37.9771 13.9802C37.595 13.2161 36.8139 12.7334 35.9598 12.7334H31.7148" stroke="black" stroke-width="2.4225" stroke-linecap="round" stroke-linejoin="round"/>
<path d="M32.8407 31.9057C30.9709 31.9057 29.4551 30.3898 29.4551 28.5199C29.4551 26.6501 30.9709 25.1343 32.8407 25.1343C34.7107 25.1343 36.2264 26.6501 36.2264 28.5199C36.2264 30.3898 34.7107 31.9057 32.8407 31.9057Z" stroke="black" stroke-width="2.4225" stroke-linecap="round" stroke-linejoin="round"/>
<path d="M18.1806 31.9057C16.3108 31.9057 14.7949 30.3898 14.7949 28.5199C14.7949 26.6501 16.3108 25.1343 18.1806 25.1343C20.0505 25.1343 21.5663 26.6501 21.5663 28.5199C21.5663 30.3898 20.0505 31.9057 18.1806 31.9057Z" stroke="black" stroke-width="2.4225" stroke-linecap="round" stroke-linejoin="round"/>
<path d="M21.5654 28.522H29.4598" stroke="black" stroke-width="2.4225" stroke-linecap="round" stroke-linejoin="round"/>
<path d="M31.7148 19.5V25.3256" stroke="black" stroke-width="2.4225" stroke-linecap="round" stroke-linejoin="round"/>
<path d="M1.86914 12H7.86914" stroke="#28B0FF" stroke-width="2.63077" stroke-linecap="round" stroke-linejoin="round"/>
<path d="M5 17L7 17" stroke="#28B0FF" stroke-width="2.63077" stroke-linecap="round" stroke-linejoin="round"/>
<path d="M1.86914 22H7.86914" stroke="#28B0FF" stroke-width="2.63077" stroke-linecap="round" stroke-linejoin="round"/>
</svg>
