<svg width="24" height="25" viewBox="0 0 24 25" fill="none" xmlns="http://www.w3.org/2000/svg">
<path d="M20.2724 7.20475C19.8509 7.22642 19.4308 7.30417 18.9733 7.44693C18.1476 7.70313 17.2873 8.12757 15.8708 8.97647C14.3396 9.89419 14.0902 10.0382 13.4966 10.3594C11.772 11.2899 10.8463 11.6379 9.74189 11.773C9.64185 11.7857 9.26171 11.7895 8.22132 11.7908C6.90484 11.7921 6.56338 11.7997 5.94715 11.8367C4.13182 11.945 2.78732 12.2242 1.78562 12.7034C0.810597 13.1699 0.231717 13.82 0.0583202 14.6459C-0.0310461 15.0742 -0.0177078 15.5535 0.0983349 15.9856C0.297075 16.7274 0.815932 17.3303 1.5522 17.6731C1.96969 17.8682 2.32716 17.9574 2.83668 17.9931C3.39822 18.0326 4.19184 17.9013 4.9868 17.6413C5.4483 17.4896 5.8071 17.343 6.76746 16.9148C7.14893 16.7452 7.53974 16.5732 7.63444 16.5324C9.02162 15.946 10.138 15.6848 11.2491 15.6848C11.5972 15.6848 11.7973 15.6988 12.4095 15.7676C14.4316 15.9932 15.496 16.0748 16.6444 16.0888C18.5825 16.113 19.8563 15.8734 20.934 15.2833C21.9931 14.702 22.8801 13.7881 23.4336 12.7085C23.7337 12.1235 23.9044 11.5843 23.9831 10.9623C24.0085 10.7647 24.0045 10.2179 23.9765 10.0255C23.8137 8.91656 23.1882 8.08551 22.1384 7.58586C22.0171 7.52851 21.841 7.4533 21.7463 7.42016C21.2835 7.25701 20.7526 7.17926 20.2724 7.20475ZM19.5255 8.83371C19.8749 8.85155 20.3138 8.98156 20.6699 9.17531C21.2861 9.50798 21.6489 9.98723 21.7623 10.6118C21.7903 10.7622 21.793 11.1433 21.769 11.3065C21.5356 12.8742 20.011 14.4446 18.253 14.9264C17.7208 15.0717 17.166 15.1367 16.447 15.1367C15.7134 15.1367 15.1212 15.0908 12.7617 14.8512C11.816 14.7543 11.5079 14.7352 11.1024 14.7454C10.4715 14.7619 9.90995 14.8435 9.33373 15.0016C8.76953 15.1571 8.31069 15.3368 7.35434 15.774C6.78746 16.0327 6.55004 16.1372 6.2606 16.252C5.60703 16.512 4.97213 16.6764 4.51329 16.7032C3.27684 16.7758 2.22979 16.0812 1.99903 15.036C1.96035 14.8626 1.94968 14.558 1.97636 14.391C2.06706 13.8327 2.43119 13.4121 3.0861 13.11C3.78102 12.7888 4.70403 12.618 6.14056 12.5479C6.54871 12.5275 7.75449 12.5275 8.72818 12.5479C9.54981 12.5645 9.84459 12.5594 10.186 12.5173C11.049 12.4115 12.0401 12.0776 13.1565 11.5142C13.6633 11.258 14.0008 11.0745 14.8904 10.5697C15.9482 9.96939 16.359 9.74761 16.8458 9.51563C17.6034 9.15236 18.173 8.95735 18.7452 8.86557C18.9119 8.83881 19.228 8.81586 19.3321 8.82224C19.3614 8.82479 19.4481 8.82989 19.5255 8.83371Z" fill="#2E2525"/>
</svg>
