<svg width="17" height="17" viewBox="0 0 17 17" fill="none" xmlns="http://www.w3.org/2000/svg">
<g clip-path="url(#clip0_146_86)">
<path d="M9.06278 1.16992H2.29747C1.67474 1.16992 1.16992 1.67474 1.16992 2.29747V14.7005C1.16992 15.3233 1.67474 15.8281 2.29747 15.8281H10.1903C10.8131 15.8281 11.3179 15.3233 11.3179 14.7005V10.7541" stroke="#292D34" stroke-width="1.21429" stroke-linecap="round" stroke-linejoin="round"/>
<path d="M5.68066 13.0098H6.80822" stroke="#292D34" stroke-width="1.21429" stroke-linecap="round" stroke-linejoin="round"/>
<path d="M11.537 2.69711L12.1122 1.30025C12.1447 1.22139 12.2216 1.16992 12.3068 1.16992C12.392 1.16992 12.4689 1.22139 12.5014 1.30025L13.0766 2.69711C13.3056 3.25319 13.7471 3.69476 14.3032 3.92373L15.7001 4.49892C15.779 4.53138 15.8304 4.60823 15.8304 4.69352C15.8304 4.77881 15.779 4.85566 15.7001 4.88812L14.3032 5.46331C13.7471 5.69228 13.3056 6.13385 13.0766 6.68993L12.5014 8.08679C12.4689 8.16564 12.392 8.21712 12.3068 8.21712C12.2216 8.21712 12.1447 8.16564 12.1122 8.08679L11.537 6.68993C11.308 6.13385 10.8665 5.69228 10.3104 5.46331L8.91353 4.88812C8.83468 4.85566 8.7832 4.77881 8.7832 4.69352C8.7832 4.60823 8.83468 4.53138 8.91353 4.49892L10.3104 3.92373C10.8665 3.69476 11.308 3.25319 11.537 2.69711Z" stroke="#292D34" stroke-width="1.21429" stroke-linecap="round" stroke-linejoin="round"/>
</g>
<defs>
<clipPath id="clip0_146_86">
<rect width="17" height="17" fill="white"/>
</clipPath>
</defs>
</svg>
