<svg width="87" height="40" viewBox="0 0 87 40" fill="none" xmlns="http://www.w3.org/2000/svg">
<path d="M73.4875 0.898029C71.9597 0.976276 70.4366 1.25705 68.7782 1.77256C65.7852 2.69771 62.6666 4.23043 57.5317 7.29588C51.981 10.6099 51.0768 11.13 48.9252 12.2899C42.6734 15.6499 39.3178 16.9065 35.3143 17.3944C34.9517 17.4404 33.5737 17.4542 29.8023 17.4588C25.03 17.4634 23.7923 17.491 21.5584 17.6245C14.9778 18.0157 10.1041 19.0237 6.47288 20.7544C2.93841 22.439 0.839975 24.7864 0.211411 27.769C-0.112542 29.3155 -0.0641908 31.0462 0.356464 32.6065C1.0769 35.2853 2.95775 37.4624 5.62674 38.7006C7.14013 39.4048 8.43594 39.727 10.283 39.8559C12.3185 39.9985 15.1954 39.5245 18.0772 38.5855C19.7501 38.0378 21.0508 37.5085 24.532 35.9619C25.9149 35.3498 27.3316 34.7284 27.6749 34.5811C32.7034 32.4638 36.7504 31.5202 40.778 31.5202C42.04 31.5202 42.7652 31.5709 44.9846 31.8194C52.3146 32.6341 56.173 32.9287 60.336 32.9793C67.3615 33.0668 71.979 32.2015 75.8858 30.0704C79.7248 27.9715 82.9402 24.6713 84.9468 20.7728C86.0347 18.6601 86.6536 16.7131 86.9388 14.467C87.0307 13.7536 87.0162 11.779 86.9147 11.084C86.3248 7.07955 84.0571 4.07854 80.2519 2.27426C79.8119 2.06713 79.1736 1.79557 78.8304 1.6759C77.1526 1.08675 75.2282 0.805977 73.4875 0.898029ZM70.7799 6.78036C72.0467 6.84481 73.6374 7.31429 74.9284 8.01391C77.1622 9.21523 78.4774 10.9459 78.8884 13.2012C78.9899 13.7444 78.9996 15.1206 78.9126 15.7097C78.0664 21.3711 72.5399 27.0418 66.1672 28.7816C64.238 29.3063 62.2266 29.5411 59.6204 29.5411C56.9611 29.5411 54.8143 29.3754 46.261 28.51C42.8329 28.1602 41.716 28.0912 40.2461 28.128C37.9591 28.1878 35.9236 28.4824 33.8348 29.0532C31.7895 29.6147 30.1263 30.2637 26.6595 31.8424C24.6046 32.7768 23.7439 33.1542 22.6947 33.5685C20.3255 34.5074 18.024 35.1012 16.3607 35.1979C11.8785 35.4602 8.08298 32.9517 7.2465 29.1774C7.10628 28.5515 7.0676 27.4514 7.1643 26.8484C7.49309 24.8324 8.81308 23.3135 11.1871 22.2227C13.7062 21.0628 17.0521 20.446 22.2595 20.1928C23.7391 20.1192 28.11 20.1192 31.6396 20.1928C34.6181 20.2527 35.6866 20.2343 36.9244 20.0824C40.0527 19.7003 43.6452 18.4944 47.6922 16.46C49.5296 15.5348 50.7528 14.872 53.9779 13.0493C57.8121 10.8814 59.3013 10.0806 61.0661 9.24285C63.8125 7.93106 65.8771 7.22684 67.9513 6.89544C68.5557 6.79878 69.7017 6.71593 70.0788 6.73894C70.1852 6.74815 70.4995 6.76656 70.7799 6.78036Z" fill="white"/>
</svg>
