<svg width="247" height="27" viewBox="0 0 247 27" fill="none" xmlns="http://www.w3.org/2000/svg">
<rect x="0.576046" y="0.576046" width="42.6274" height="25.346" rx="4.03232" fill="white"/>
<rect x="0.576046" y="0.576046" width="42.6274" height="25.346" rx="4.03232" stroke="#DFE1ED" stroke-width="1.15209"/>
<g clip-path="url(#clip0_146_40)">
<path d="M16.6396 7.31445H22.9958V18.7354H16.6396V7.31445Z" fill="#FF5F00"/>
<path d="M17.0438 13.0249C17.0438 10.7045 18.1334 8.64623 19.8082 7.31443C18.5774 6.34589 17.0237 5.76074 15.3287 5.76074C11.3131 5.76074 8.06445 9.0094 8.06445 13.0249C8.06445 17.0405 11.3131 20.2891 15.3286 20.2891C17.0236 20.2891 18.5773 19.704 19.8082 18.7353C18.1334 17.4238 17.0438 15.3454 17.0438 13.0249Z" fill="#EB001B"/>
<path d="M31.5719 13.0249C31.5719 17.0404 28.3232 20.2891 24.3077 20.2891C22.6127 20.2891 21.059 19.704 19.8281 18.7353C21.5231 17.4036 22.5926 15.3454 22.5926 13.0249C22.5926 10.7045 21.5029 8.64623 19.8281 7.31443C21.0589 6.34589 22.6127 5.76074 24.3077 5.76074C28.3232 5.76074 31.5719 9.02962 31.5719 13.0249Z" fill="#F79E1B"/>
</g>
<rect x="51.3553" y="0.576046" width="42.6274" height="25.346" rx="4.03232" fill="white"/>
<rect x="51.3553" y="0.576046" width="42.6274" height="25.346" rx="4.03232" stroke="#DFE1ED" stroke-width="1.15209"/>
<g clip-path="url(#clip1_146_40)">
<path d="M75.1945 7.80899C74.6629 7.20311 73.702 6.94336 72.4728 6.94336H68.9051C68.7835 6.94334 68.6658 6.98672 68.5733 7.0657C68.4808 7.14469 68.4195 7.25408 68.4005 7.37421L66.915 16.7957C66.8855 16.9815 67.0293 17.1497 67.2176 17.1497H69.4202L69.9733 13.6411L69.9562 13.751C69.9956 13.503 70.2077 13.3201 70.4589 13.3201H71.5055C73.5616 13.3201 75.1716 12.4849 75.6419 10.069C75.6559 9.99755 75.668 9.928 75.6784 9.86006C75.6191 9.82862 75.6191 9.82862 75.6784 9.86006C75.8185 8.96711 75.6775 8.35929 75.1945 7.80899Z" fill="#27346A"/>
<path d="M70.8161 9.53839C70.8763 9.50967 70.9422 9.49481 71.0089 9.4949H73.8059C74.1371 9.4949 74.446 9.51645 74.7283 9.56189C74.8073 9.57449 74.8859 9.58953 74.9639 9.60698C75.0746 9.6314 75.184 9.66128 75.2916 9.69651C75.4304 9.74286 75.5597 9.79685 75.6785 9.86006C75.8185 8.96677 75.6775 8.35929 75.1945 7.80899C74.6626 7.20311 73.702 6.94336 72.4728 6.94336H68.9048C68.6536 6.94336 68.4399 7.12624 68.4005 7.37421L66.915 16.7953C66.8855 16.9814 67.0293 17.1494 67.2173 17.1494H69.4202L70.5678 9.87181C70.5791 9.80028 70.6076 9.73256 70.6509 9.67448C70.6941 9.6164 70.7508 9.5697 70.8161 9.53839Z" fill="#27346A"/>
<path d="M75.6419 10.0693C75.1716 12.4849 73.5616 13.3204 71.5055 13.3204H70.4585C70.2073 13.3204 69.9952 13.5033 69.9562 13.7513L69.268 18.1138C69.2423 18.2764 69.368 18.4237 69.5325 18.4237H71.3892C71.4956 18.4237 71.5984 18.3857 71.6793 18.3166C71.7602 18.2475 71.8137 18.1518 71.8303 18.0468L71.8484 17.9522L72.1984 15.7344L72.2209 15.6118C72.2375 15.5068 72.2911 15.4111 72.3719 15.342C72.4528 15.2729 72.5556 15.2349 72.662 15.2349H72.9398C74.7384 15.2349 76.1468 14.5042 76.5583 12.3909C76.7301 11.5078 76.6412 10.7704 76.1868 10.2525C76.049 10.0957 75.8778 9.9661 75.6784 9.86035C75.6676 9.92864 75.6559 9.99784 75.6419 10.0693Z" fill="#2790C3"/>
<path d="M75.1848 9.66408C75.1115 9.64267 75.0375 9.62371 74.9629 9.60724C74.8848 9.59007 74.8062 9.57513 74.7273 9.56245C74.4446 9.51671 74.1359 9.49512 73.8044 9.49512H71.0078C70.9411 9.49501 70.8752 9.50999 70.815 9.53895C70.7496 9.57015 70.6929 9.61682 70.6496 9.67492C70.6063 9.73302 70.5779 9.80079 70.5667 9.87237L69.9722 13.6414L69.9551 13.7513C69.9942 13.5033 70.2063 13.3203 70.4575 13.3203H71.5045C73.5606 13.3203 75.1705 12.4852 75.6408 10.0693C75.6548 9.9978 75.6666 9.92856 75.6774 9.86032C75.5583 9.7975 75.4294 9.74308 75.2906 9.69708C75.2555 9.68546 75.2203 9.67446 75.1849 9.66408" fill="#1F264F"/>
</g>
<rect x="102.135" y="0.576046" width="42.6274" height="25.346" rx="4.03232" fill="white"/>
<rect x="102.135" y="0.576046" width="42.6274" height="25.346" rx="4.03232" stroke="#DFE1ED" stroke-width="1.15209"/>
<g clip-path="url(#clip2_146_40)">
<path d="M119.135 9.39386L115.07 19.0906H112.419L110.418 11.3517C110.297 10.8762 110.192 10.7012 109.823 10.5001C109.219 10.1724 108.223 9.86597 107.348 9.67533L107.407 9.39386H111.676C112.219 9.39386 112.709 9.75561 112.833 10.382L113.89 15.9936L116.499 9.39386H119.135ZM122.72 9.39386L120.646 19.0906H118.137L120.211 9.39386H122.72ZM129.525 15.9246C129.536 13.3659 125.987 13.2239 126.01 12.0807C126.019 11.7331 126.35 11.3631 127.075 11.2685C127.434 11.222 128.425 11.1851 129.549 11.7026L129.988 9.64513C129.385 9.42684 128.608 9.2168 127.642 9.2168C125.162 9.2168 123.417 10.5341 123.403 12.4218C123.387 13.8181 124.649 14.5963 125.599 15.0614C126.576 15.5363 126.904 15.8416 126.9 16.266C126.893 16.9166 126.119 17.2047 125.399 17.2153C124.138 17.2354 123.406 16.8743 122.823 16.6026L122.367 18.7282C122.954 18.9972 124.036 19.2309 125.157 19.2428C127.793 19.2428 129.517 17.9406 129.525 15.9246ZM136.074 19.0907H138.393L136.367 9.39386H134.227C133.744 9.39386 133.339 9.674 133.159 10.1046L129.394 19.0906H132.029L132.551 17.6421H135.77L136.074 19.0907ZM133.274 15.6552L134.595 12.0137L135.353 15.6552H133.274Z" fill="#1A1F71"/>
</g>
<rect x="152.915" y="0.576046" width="42.6274" height="25.346" rx="4.03232" fill="white"/>
<rect x="152.915" y="0.576046" width="42.6274" height="25.346" rx="4.03232" stroke="#DFE1ED" stroke-width="1.15209"/>
<g clip-path="url(#clip3_146_40)">
<path d="M178.048 13.2365C178.047 12.36 177.78 11.5045 177.283 10.7825C176.786 10.0605 176.083 9.50572 175.265 9.19118V17.2817C176.083 16.9676 176.787 16.413 177.284 15.6909C177.781 14.9687 178.047 14.113 178.048 13.2365ZM172.161 17.2803V9.1919C171.344 9.50674 170.64 10.0615 170.144 10.7834C169.648 11.5052 169.381 12.3604 169.38 13.2365C169.381 14.1124 169.648 14.9674 170.144 15.6891C170.641 16.4108 171.344 16.9655 172.161 17.2803ZM173.714 6.39808C171.9 6.39827 170.161 7.11883 168.879 8.40125C167.596 9.68368 166.876 11.4229 166.876 13.2365C166.876 15.0496 167.597 16.7884 168.879 18.0704C170.161 19.3525 171.9 20.0727 173.713 20.0727C174.611 20.0728 175.5 19.896 176.329 19.5525C177.159 19.209 177.913 18.7055 178.548 18.0707C179.182 17.4359 179.686 16.6823 180.03 15.8528C180.374 15.0233 180.55 14.1343 180.551 13.2365C180.55 11.4231 179.829 9.68419 178.547 8.40188C177.265 7.11958 175.526 6.39885 173.713 6.39808H173.714ZM173.697 20.7186C169.564 20.738 166.163 17.3898 166.163 13.3142C166.163 8.86068 169.564 5.77955 173.697 5.78027H175.634C179.716 5.78027 183.444 8.85924 183.444 13.3142C183.444 17.3883 179.717 20.7186 175.633 20.7186" fill="#3086C8"/>
</g>
<rect x="203.694" y="0.576046" width="42.6274" height="25.346" rx="4.03232" fill="white"/>
<rect x="203.694" y="0.576046" width="42.6274" height="25.346" rx="4.03232" stroke="#DFE1ED" stroke-width="1.15209"/>
<g clip-path="url(#clip4_146_40)">
<path d="M225.305 10.3906C223.848 10.3906 222.666 11.4995 222.666 12.868C222.666 14.3231 223.797 15.4108 225.305 15.4108C226.776 15.4108 227.937 14.3087 227.937 12.8966C227.937 11.4929 226.784 10.3906 225.305 10.3906Z" fill="url(#paint0_linear_146_40)"/>
<path d="M225.305 10.3906C223.848 10.3906 222.666 11.4995 222.666 12.868C222.666 14.3231 223.797 15.4108 225.305 15.4108C226.776 15.4108 227.937 14.3087 227.937 12.8966C227.937 11.4929 226.784 10.3906 225.305 10.3906Z" fill="#FF8001"/>
<path d="M210.323 10.4808H208.904V15.3019H210.316C211.065 15.3019 211.606 15.1291 212.081 14.7456C212.645 14.2902 212.979 13.6034 212.979 12.8936C212.979 11.4703 211.888 10.4808 210.323 10.4808ZM211.451 14.1017C211.146 14.3698 210.754 14.4857 210.129 14.4857H209.87V11.2972H210.129C210.754 11.2972 211.131 11.4057 211.451 11.6873C211.785 11.9765 211.984 12.4243 211.984 12.8868C211.984 13.3502 211.785 13.8137 211.451 14.1017ZM213.425 15.3019H214.389V10.4808H213.425L213.425 15.3019ZM216.75 12.3301C216.17 12.121 216 11.983 216 11.7237C216 11.4198 216.303 11.1887 216.72 11.1887C217.009 11.1887 217.246 11.3043 217.499 11.5781L218.003 10.9358C217.588 10.5808 217.091 10.4004 216.549 10.4004C215.674 10.4004 215.005 10.9934 215.005 11.7806C215.005 12.4462 215.317 12.7857 216.222 13.1046C216.601 13.234 216.794 13.3204 216.89 13.3794C217.083 13.5023 217.18 13.6752 217.18 13.8775C217.18 14.2685 216.861 14.5572 216.43 14.5572C215.97 14.5572 215.599 14.3333 215.376 13.9141L214.754 14.5003C215.198 15.1356 215.732 15.4184 216.468 15.4184C217.469 15.4184 218.174 14.7669 218.174 13.8347C218.174 13.0683 217.848 12.721 216.75 12.3301ZM218.478 12.8937C218.478 14.3121 219.621 15.4107 221.091 15.4107C221.506 15.4107 221.863 15.3306 222.301 15.129V14.0224C221.914 14.3987 221.573 14.5501 221.135 14.5501C220.163 14.5501 219.473 13.8631 219.473 12.8868C219.473 11.9619 220.185 11.2317 221.091 11.2317C221.55 11.2317 221.9 11.3906 222.301 11.7737V10.6672C221.878 10.4582 221.529 10.3721 221.113 10.3721C219.651 10.3721 218.478 11.4928 218.478 12.8937ZM230.122 13.7193L228.801 10.4808H227.747L229.848 15.425H230.367L232.505 10.4807H231.458L230.122 13.7193ZM232.943 15.3019H235.681V14.4857H233.908V13.1835H235.613V12.3672H233.908V11.2971H235.681V10.4809H232.943L232.943 15.3019ZM239.502 11.9036C239.502 11.0005 238.865 10.4808 237.751 10.4808H236.319V15.3019H237.284V13.3642H237.411L238.746 15.3019H239.933L238.374 13.2711C239.102 13.126 239.502 12.6414 239.502 11.9036ZM237.565 12.6998H237.284V11.2389H237.581C238.183 11.2389 238.509 11.4855 238.509 11.9546C238.509 12.4386 238.183 12.6998 237.565 12.6998Z" fill="#0B1015"/>
</g>
<defs>
<linearGradient id="paint0_linear_146_40" x1="325.001" y1="55.8881" x2="671.376" y2="431.409" gradientUnits="userSpaceOnUse">
<stop stop-color="#F34F26"/>
<stop offset="1" stop-color="#F69E35"/>
</linearGradient>
<clipPath id="clip0_146_40">
<rect width="23.531" height="18.2917" fill="white" transform="translate(8.06445 5.76074)"/>
</clipPath>
<clipPath id="clip1_146_40">
<rect width="9.76607" height="11.5209" fill="white" transform="translate(66.9082 6.91211)"/>
</clipPath>
<clipPath id="clip2_146_40">
<rect width="31.0458" height="13.8251" fill="white" transform="translate(107.349 5.76074)"/>
</clipPath>
<clipPath id="clip3_146_40">
<rect width="17.2814" height="17.2814" fill="white" transform="translate(166.163 4.6084)"/>
</clipPath>
<clipPath id="clip4_146_40">
<rect width="31.1065" height="5.22491" fill="white" transform="translate(208.879 10.3691)"/>
</clipPath>
</defs>
</svg>
