<svg width="345" height="393" viewBox="0 0 345 393" fill="none" xmlns="http://www.w3.org/2000/svg">
<g filter="url(#filter0_d_149_47)">
<rect x="72" y="69" width="200.898" height="248.31" rx="11.9677" fill="white"/>
<rect x="72.5" y="69.5" width="199.898" height="247.31" rx="11.4677" stroke="black" stroke-opacity="0.11"/>
<path d="M109.065 149.092H161.031V97.126H109.065V149.092ZM122.057 110.117H148.04V136.1H122.057V110.117ZM109.065 214.049H161.031V162.083H109.065V214.049ZM122.057 175.075H148.04V201.057H122.057V175.075ZM174.023 97.126V149.092H225.988V97.126H174.023ZM212.997 136.1H187.014V110.117H212.997V136.1ZM212.997 201.057H225.988V214.049H212.997V201.057ZM174.023 162.083H187.014V175.075H174.023V162.083ZM187.014 175.075H200.005V188.066H187.014V175.075ZM174.023 188.066H187.014V201.057H174.023V188.066ZM187.014 201.057H200.005V214.049H187.014V201.057ZM200.005 188.066H212.997V201.057H200.005V188.066ZM200.005 162.083H212.997V175.075H200.005V162.083ZM212.997 175.075H225.988V188.066H212.997V175.075Z" fill="black"/>
<line x1="97.7148" y1="239.763" x2="257.63" y2="239.763" stroke="#DADADA" stroke-width="0.803593"/>
<path d="M118.476 280.992C118.491 279.9 118.802 278.83 119.38 277.881C119.958 276.932 120.784 276.134 121.782 275.562C121.148 274.719 120.312 274.025 119.34 273.535C118.368 273.045 117.287 272.773 116.182 272.741C113.826 272.511 111.542 274.055 110.342 274.055C109.118 274.055 107.27 272.764 105.279 272.802C103.991 272.841 102.737 273.19 101.637 273.815C100.537 274.44 99.6298 275.32 99.0034 276.369C96.2899 280.747 98.3139 287.182 100.913 290.721C102.214 292.454 103.734 294.39 105.722 294.321C107.668 294.246 108.395 293.164 110.744 293.164C113.072 293.164 113.753 294.321 115.782 294.277C117.871 294.246 119.186 292.537 120.441 290.787C121.376 289.552 122.095 288.188 122.572 286.744C121.358 286.265 120.323 285.465 119.595 284.442C118.866 283.419 118.477 282.219 118.476 280.992V280.992Z" fill="black"/>
<path d="M114.643 270.415C115.781 269.141 116.342 267.504 116.207 265.851C114.467 266.021 112.86 266.796 111.706 268.021C111.142 268.619 110.71 269.315 110.435 270.069C110.159 270.824 110.046 271.621 110.102 272.416C110.972 272.424 111.832 272.248 112.619 271.902C113.406 271.555 114.098 271.047 114.643 270.415Z" fill="black"/>
<path d="M143.075 289.932H136.434L134.839 294.321H132.026L138.317 278.084H141.239L147.53 294.321H144.669L143.075 289.932ZM137.122 287.907H142.386L139.791 280.785H139.718L137.122 287.907Z" fill="black"/>
<path d="M161.114 288.403C161.114 292.082 159.001 294.446 155.813 294.446C155.005 294.485 154.202 294.312 153.495 293.945C152.788 293.579 152.206 293.035 151.816 292.374H151.756V298.238H149.148V282.483H151.672V284.452H151.72C152.128 283.795 152.72 283.254 153.432 282.885C154.145 282.517 154.951 282.335 155.765 282.36C158.989 282.36 161.114 284.735 161.114 288.403ZM158.434 288.403C158.434 286.006 157.105 284.431 155.077 284.431C153.085 284.431 151.745 286.04 151.745 288.403C151.745 290.788 153.085 292.386 155.077 292.386C157.105 292.386 158.434 290.822 158.434 288.403Z" fill="black"/>
<path d="M175.095 288.403C175.095 292.082 172.983 294.446 169.794 294.446C168.987 294.485 168.183 294.311 167.477 293.945C166.77 293.579 166.188 293.035 165.798 292.374H165.737V298.238H163.13V282.483H165.654V284.452H165.702C166.11 283.795 166.702 283.254 167.414 282.885C168.126 282.517 168.932 282.335 169.746 282.36C172.97 282.36 175.095 284.735 175.095 288.403ZM172.415 288.403C172.415 286.006 171.086 284.431 169.059 284.431C167.066 284.431 165.726 286.04 165.726 288.403C165.726 290.788 167.066 292.386 169.059 292.386C171.086 292.386 172.415 290.822 172.415 288.403H172.415Z" fill="black"/>
<path d="M184.336 289.797C184.529 291.407 186.208 292.465 188.501 292.465C190.699 292.465 192.28 291.407 192.28 289.956C192.28 288.695 191.327 287.941 189.069 287.423L186.811 286.917C183.611 286.196 182.126 284.802 182.126 282.539C182.126 279.738 184.746 277.813 188.466 277.813C192.147 277.813 194.671 279.738 194.756 282.539H192.124C191.966 280.919 190.529 279.941 188.429 279.941C186.328 279.941 184.891 280.93 184.891 282.371C184.891 283.519 185.809 284.194 188.055 284.711L189.974 285.151C193.549 285.938 195.034 287.277 195.034 289.652C195.034 292.689 192.438 294.592 188.308 294.592C184.444 294.592 181.836 292.734 181.667 289.797L184.336 289.797Z" fill="black"/>
<path d="M200.661 279.682V282.483H203.077V284.407H200.661V290.934C200.661 291.948 201.145 292.42 202.207 292.42C202.493 292.415 202.78 292.397 203.064 292.364V294.277C202.587 294.36 202.102 294.397 201.616 294.389C199.044 294.389 198.041 293.489 198.041 291.193V284.407H196.194V282.483H198.041V279.682H200.661Z" fill="black"/>
<path d="M204.476 288.402C204.476 284.677 206.829 282.337 210.5 282.337C214.183 282.337 216.526 284.677 216.526 288.402C216.526 292.137 214.195 294.468 210.5 294.468C206.806 294.468 204.476 292.137 204.476 288.402ZM213.869 288.402C213.869 285.847 212.613 284.339 210.5 284.339C208.387 284.339 207.132 285.859 207.132 288.402C207.132 290.968 208.387 292.464 210.5 292.464C212.613 292.464 213.869 290.968 213.869 288.402H213.869Z" fill="black"/>
<path d="M218.676 282.483H221.163V284.498H221.223C221.391 283.869 221.787 283.313 222.343 282.923C222.9 282.534 223.583 282.335 224.278 282.359C224.579 282.359 224.878 282.389 225.172 282.45V284.723C224.792 284.615 224.397 284.565 224 284.576C223.621 284.562 223.244 284.624 222.893 284.759C222.543 284.893 222.228 285.097 221.969 285.356C221.711 285.614 221.516 285.922 221.398 286.258C221.279 286.593 221.24 286.949 221.283 287.3V294.322H218.676L218.676 282.483Z" fill="black"/>
<path d="M237.193 290.844C236.842 292.993 234.596 294.468 231.723 294.468C228.028 294.468 225.734 292.16 225.734 288.458C225.734 284.745 228.04 282.337 231.614 282.337C235.128 282.337 237.338 284.587 237.338 288.176V289.009H228.366V289.156C228.325 289.591 228.384 290.03 228.538 290.443C228.693 290.856 228.94 291.234 229.263 291.551C229.586 291.868 229.978 292.117 230.413 292.283C230.847 292.448 231.315 292.525 231.784 292.509C232.4 292.563 233.018 292.43 233.547 292.13C234.075 291.83 234.486 291.379 234.717 290.844L237.193 290.844ZM228.379 287.31H234.729C234.753 286.919 234.689 286.527 234.542 286.159C234.395 285.791 234.168 285.456 233.876 285.174C233.583 284.892 233.231 284.669 232.842 284.52C232.453 284.37 232.035 284.297 231.614 284.306C231.189 284.304 230.768 284.38 230.375 284.53C229.982 284.68 229.625 284.901 229.324 285.18C229.024 285.459 228.785 285.791 228.623 286.157C228.461 286.523 228.378 286.915 228.379 287.31V287.31Z" fill="black"/>
<path d="M136.795 265.864C137.342 265.828 137.891 265.905 138.401 266.09C138.912 266.275 139.373 266.563 139.75 266.934C140.126 267.305 140.41 267.749 140.581 268.234C140.751 268.72 140.803 269.234 140.735 269.741C140.735 272.234 139.289 273.666 136.795 273.666H133.771V265.864H136.795ZM135.072 272.563H136.65C137.041 272.585 137.432 272.525 137.794 272.388C138.157 272.251 138.483 272.041 138.747 271.772C139.011 271.503 139.208 271.183 139.323 270.834C139.438 270.486 139.468 270.118 139.411 269.757C139.464 269.398 139.431 269.032 139.314 268.686C139.198 268.34 139 268.022 138.736 267.755C138.473 267.489 138.149 267.28 137.788 267.143C137.427 267.007 137.039 266.947 136.65 266.967H135.072V272.563Z" fill="black"/>
<path d="M142.204 270.719C142.164 270.332 142.211 269.942 142.343 269.573C142.475 269.204 142.688 268.865 142.968 268.577C143.249 268.29 143.591 268.06 143.972 267.903C144.353 267.745 144.766 267.664 145.183 267.664C145.6 267.664 146.012 267.745 146.394 267.903C146.775 268.06 147.117 268.29 147.398 268.577C147.678 268.865 147.891 269.204 148.023 269.573C148.155 269.942 148.202 270.332 148.162 270.719C148.203 271.106 148.156 271.497 148.025 271.867C147.893 272.236 147.68 272.576 147.4 272.864C147.119 273.152 146.777 273.383 146.395 273.54C146.013 273.698 145.6 273.779 145.183 273.779C144.765 273.779 144.352 273.698 143.971 273.54C143.589 273.383 143.247 273.152 142.966 272.864C142.685 272.576 142.473 272.236 142.341 271.867C142.21 271.497 142.163 271.106 142.204 270.719V270.719ZM146.88 270.719C146.88 269.443 146.265 268.696 145.185 268.696C144.101 268.696 143.492 269.443 143.492 270.719C143.492 272.005 144.101 272.746 145.185 272.746C146.265 272.746 146.88 272 146.88 270.719H146.88Z" fill="black"/>
<path d="M156.083 273.665H154.79L153.484 269.329H153.385L152.085 273.665H150.804L149.062 267.777H150.327L151.459 272.27H151.552L152.851 267.777H154.047L155.346 272.27H155.445L156.571 267.777H157.818L156.083 273.665Z" fill="black"/>
<path d="M159.282 267.778H160.482V268.713H160.576C160.734 268.377 161 268.095 161.338 267.907C161.676 267.719 162.069 267.634 162.461 267.664C162.768 267.642 163.077 267.686 163.364 267.79C163.651 267.895 163.909 268.059 164.119 268.269C164.329 268.479 164.486 268.731 164.577 269.005C164.669 269.28 164.693 269.57 164.648 269.854V273.665H163.401V270.146C163.401 269.199 162.96 268.729 162.038 268.729C161.829 268.72 161.621 268.753 161.427 268.826C161.233 268.899 161.059 269.01 160.915 269.152C160.772 269.294 160.663 269.463 160.597 269.647C160.53 269.832 160.507 270.027 160.529 270.221V273.665H159.282L159.282 267.778Z" fill="black"/>
<path d="M166.634 265.479H167.881V273.666H166.634V265.479Z" fill="black"/>
<path d="M169.615 270.719C169.575 270.332 169.622 269.942 169.754 269.573C169.886 269.204 170.099 268.865 170.379 268.577C170.66 268.29 171.002 268.06 171.383 267.903C171.765 267.745 172.177 267.664 172.594 267.664C173.011 267.664 173.424 267.745 173.805 267.903C174.187 268.06 174.529 268.29 174.809 268.577C175.09 268.865 175.303 269.204 175.435 269.573C175.566 269.942 175.614 270.332 175.574 270.719C175.615 271.106 175.568 271.497 175.436 271.867C175.305 272.236 175.092 272.576 174.811 272.864C174.531 273.152 174.189 273.383 173.807 273.54C173.425 273.698 173.012 273.779 172.594 273.779C172.177 273.779 171.764 273.698 171.382 273.54C171 273.383 170.658 273.152 170.377 272.864C170.097 272.576 169.884 272.236 169.753 271.867C169.621 271.497 169.574 271.106 169.615 270.719V270.719ZM174.291 270.719C174.291 269.443 173.676 268.696 172.596 268.696C171.512 268.696 170.903 269.443 170.903 270.719C170.903 272.006 171.512 272.746 172.596 272.746C173.676 272.746 174.291 272 174.291 270.719H174.291Z" fill="black"/>
<path d="M176.886 272C176.886 270.941 177.732 270.33 179.236 270.243L180.947 270.151V269.643C180.947 269.021 180.506 268.67 179.653 268.67C178.957 268.67 178.475 268.908 178.337 269.324H177.13C177.257 268.313 178.278 267.664 179.711 267.664C181.295 267.664 182.188 268.399 182.188 269.643V273.666H180.988V272.838H180.889C180.689 273.135 180.408 273.377 180.075 273.539C179.741 273.702 179.367 273.779 178.992 273.763C178.726 273.788 178.458 273.762 178.205 273.685C177.951 273.608 177.718 273.483 177.519 273.317C177.321 273.151 177.162 272.948 177.053 272.721C176.944 272.494 176.887 272.249 176.886 272V272ZM180.947 271.497V271.005L179.404 271.097C178.534 271.151 178.139 271.427 178.139 271.946C178.139 272.476 178.633 272.784 179.311 272.784C179.51 272.803 179.71 272.784 179.901 272.729C180.092 272.674 180.269 272.584 180.422 272.464C180.574 272.344 180.699 272.197 180.79 272.03C180.88 271.864 180.933 271.683 180.947 271.497V271.497Z" fill="black"/>
<path d="M183.827 270.719C183.827 268.859 184.853 267.68 186.45 267.68C186.844 267.663 187.236 267.751 187.579 267.934C187.922 268.117 188.203 268.387 188.387 268.713H188.48V265.479H189.727V273.666H188.532V272.735H188.434C188.235 273.059 187.945 273.326 187.595 273.507C187.246 273.688 186.849 273.776 186.45 273.763C184.842 273.763 183.827 272.584 183.827 270.719ZM185.115 270.719C185.115 271.968 185.747 272.72 186.803 272.72C187.854 272.72 188.503 271.957 188.503 270.724C188.503 269.497 187.847 268.724 186.803 268.724C185.754 268.724 185.115 269.481 185.115 270.719H185.115Z" fill="black"/>
<path d="M194.885 270.719C194.845 270.332 194.893 269.942 195.025 269.573C195.156 269.204 195.369 268.865 195.65 268.577C195.93 268.29 196.272 268.06 196.654 267.903C197.035 267.745 197.447 267.664 197.865 267.664C198.282 267.664 198.694 267.745 199.076 267.903C199.457 268.06 199.799 268.29 200.079 268.577C200.36 268.865 200.573 269.204 200.704 269.573C200.836 269.942 200.884 270.332 200.844 270.719C200.884 271.106 200.837 271.497 200.706 271.867C200.575 272.236 200.362 272.576 200.081 272.864C199.801 273.152 199.459 273.383 199.077 273.54C198.695 273.698 198.282 273.779 197.865 273.779C197.447 273.779 197.034 273.698 196.652 273.54C196.27 273.383 195.928 273.152 195.648 272.864C195.367 272.576 195.154 272.236 195.023 271.867C194.892 271.497 194.845 271.106 194.885 270.719V270.719ZM199.561 270.719C199.561 269.443 198.946 268.696 197.867 268.696C196.783 268.696 196.173 269.443 196.173 270.719C196.173 272.005 196.783 272.746 197.867 272.746C198.946 272.746 199.561 272 199.561 270.719Z" fill="black"/>
<path d="M202.518 267.778H203.718V268.713H203.811C203.969 268.377 204.236 268.095 204.574 267.907C204.912 267.719 205.304 267.634 205.696 267.664C206.004 267.642 206.312 267.686 206.599 267.79C206.886 267.895 207.145 268.059 207.355 268.269C207.565 268.479 207.721 268.731 207.813 269.005C207.904 269.28 207.928 269.57 207.883 269.854V273.665H206.636V270.146C206.636 269.199 206.195 268.729 205.273 268.729C205.064 268.72 204.856 268.753 204.662 268.826C204.468 268.899 204.294 269.01 204.151 269.152C204.007 269.294 203.899 269.463 203.832 269.647C203.765 269.832 203.742 270.027 203.764 270.221V273.665H202.518V267.778Z" fill="black"/>
<path d="M214.929 266.312V267.805H216.298V268.784H214.929V271.811C214.929 272.428 215.202 272.698 215.822 272.698C215.981 272.698 216.14 272.689 216.298 272.671V273.639C216.074 273.677 215.847 273.697 215.619 273.699C214.233 273.699 213.681 273.244 213.681 272.109V268.784H212.678V267.805H213.681V266.312H214.929Z" fill="black"/>
<path d="M218 265.479H219.236V268.724H219.335C219.5 268.385 219.774 268.102 220.119 267.913C220.464 267.724 220.862 267.639 221.261 267.669C221.567 267.654 221.872 267.701 222.156 267.809C222.44 267.916 222.695 268.08 222.903 268.29C223.111 268.5 223.266 268.749 223.358 269.022C223.451 269.294 223.477 269.582 223.437 269.864V273.666H222.189V270.151C222.189 269.211 221.719 268.734 220.838 268.734C220.623 268.718 220.408 268.745 220.206 268.815C220.004 268.884 219.821 268.994 219.67 269.136C219.518 269.278 219.402 269.449 219.329 269.638C219.256 269.826 219.228 270.027 219.247 270.227V273.666H218L218 265.479Z" fill="black"/>
<path d="M230.706 272.076C230.537 272.614 230.17 273.079 229.669 273.391C229.169 273.702 228.567 273.84 227.969 273.779C227.553 273.789 227.139 273.715 226.757 273.562C226.374 273.408 226.032 273.178 225.755 272.889C225.477 272.6 225.27 272.258 225.149 271.887C225.027 271.516 224.993 271.125 225.05 270.74C224.995 270.355 225.029 269.962 225.15 269.59C225.272 269.218 225.477 268.874 225.754 268.583C226.03 268.291 226.37 268.058 226.751 267.9C227.133 267.741 227.546 267.661 227.963 267.664C229.721 267.664 230.782 268.783 230.782 270.632V271.038H226.32V271.103C226.301 271.319 226.33 271.536 226.406 271.741C226.482 271.946 226.603 272.134 226.761 272.293C226.92 272.452 227.112 272.578 227.326 272.664C227.54 272.749 227.77 272.792 228.003 272.79C228.301 272.823 228.603 272.773 228.871 272.646C229.139 272.519 229.36 272.32 229.506 272.076L230.706 272.076ZM226.32 270.178H229.512C229.527 269.981 229.498 269.782 229.427 269.596C229.355 269.409 229.243 269.238 229.096 269.095C228.95 268.951 228.773 268.838 228.577 268.762C228.38 268.686 228.169 268.649 227.956 268.653C227.741 268.651 227.527 268.688 227.327 268.764C227.127 268.84 226.946 268.952 226.793 269.094C226.641 269.236 226.521 269.406 226.439 269.592C226.358 269.778 226.318 269.977 226.32 270.178H226.32Z" fill="black"/>
</g>
<defs>
<filter id="filter0_d_149_47" x="0.194107" y="0.408479" width="344.51" height="391.922" filterUnits="userSpaceOnUse" color-interpolation-filters="sRGB">
<feFlood flood-opacity="0" result="BackgroundImageFix"/>
<feColorMatrix in="SourceAlpha" type="matrix" values="0 0 0 0 0 0 0 0 0 0 0 0 0 0 0 0 0 0 127 0" result="hardAlpha"/>
<feOffset dy="3.21437"/>
<feGaussianBlur stdDeviation="35.9029"/>
<feComposite in2="hardAlpha" operator="out"/>
<feColorMatrix type="matrix" values="0 0 0 0 0 0 0 0 0 0 0 0 0 0 0 0 0 0 0.1 0"/>
<feBlend mode="normal" in2="BackgroundImageFix" result="effect1_dropShadow_149_47"/>
<feBlend mode="normal" in="SourceGraphic" in2="effect1_dropShadow_149_47" result="shape"/>
</filter>
</defs>
</svg>
