<svg width="24" height="25" viewBox="0 0 24 25" fill="none" xmlns="http://www.w3.org/2000/svg">
<path d="M9.12891 21.6982H21.8812" stroke="black" stroke-width="1.5" stroke-linecap="round" stroke-linejoin="round"/>
<path d="M3.48947 10.5309C2.35359 9.55976 1.85501 8.96628 1.70709 7.54095C1.56689 6.1901 2.19338 4.79724 3.13527 4.08573C4.44512 3.09628 6.00051 4.02721 6.87027 5.33964C7.81282 6.76189 8.62784 10.8734 8.6902 12.6366C8.761 14.6387 8.43541 16.4575 7.59766 18.1977C7.02307 19.3911 6.17407 20.7981 5.04404 21.2747C4.01997 21.7066 2.90713 21.5456 2.70102 20.0844C2.44841 18.2936 3.14447 16.5488 3.90544 15.0688C4.91438 13.1065 6.18851 11.4818 7.95306 10.5309C14.7574 6.86367 10.7394 18.6719 12.9961 18.6719C15.2528 18.6719 15.3984 12.871 16.9805 13.7983C18.5625 14.7256 15.5379 20.4845 21.1992 16.8452" stroke="black" stroke-width="1.5" stroke-linecap="round" stroke-linejoin="round"/>
</svg>
